<svg width="1810" height="1085" viewBox="0 0 1810 1085" fill="none" xmlns="http://www.w3.org/2000/svg">
<g id="Home">
<rect id="Background" width="1810" height="1085" fill="#3E8459"/>
<path id="Line 21" d="M572.113 372L312 372M620 413L359.887 413" stroke="#306A46" stroke-width="15"/>
<path id="Line 22" d="M1348 700L1087.89 700M1387.11 740L1127 740" stroke="#306A46" stroke-width="15"/>
<g id="main">
<rect id="Rectangle 1" x="606" y="374" width="603.771" height="487" rx="20" fill="#FFF893" stroke="#E6B541" stroke-width="18" stroke-linecap="round" stroke-dasharray="36 72 108 144"/>
<path id="Enable your web camera for a live demonstration" d="M725.31 492V458.595H744.843V463.389H730.614V472.671H743.466V477.261H730.614V487.206H744.996V492H725.31ZM755.706 467.775L755.808 469.254C758.562 467.996 760.721 467.367 762.285 467.367C765.039 467.367 767.062 468.183 768.354 469.815C769.68 471.413 770.343 473.929 770.343 477.363V492H765.09V477.516C765.09 475.884 764.801 474.609 764.223 473.691C763.645 472.773 762.744 472.314 761.52 472.314C760.296 472.314 758.409 472.909 755.859 474.099V492H750.606V467.775H755.706ZM784.266 487.614C785.218 487.614 786.272 487.393 787.428 486.951C788.584 486.509 789.502 486.016 790.182 485.472V481.902C788.142 481.732 786.476 481.647 785.184 481.647C782.362 481.647 780.951 482.701 780.951 484.809C780.951 486.679 782.056 487.614 784.266 487.614ZM783.45 492.561C778.01 492.561 775.29 489.977 775.29 484.809C775.29 482.055 776.157 480.134 777.891 479.046C779.659 477.924 782.09 477.363 785.184 477.363C786.646 477.363 788.312 477.448 790.182 477.618C790.182 475.578 789.893 474.184 789.315 473.436C788.737 472.688 787.734 472.314 786.306 472.314C784.878 472.314 783.212 472.484 781.308 472.824C779.404 473.164 777.942 473.504 776.922 473.844L775.953 468.999C779.523 467.911 783.008 467.367 786.408 467.367C789.808 467.367 792.154 468.115 793.446 469.611C794.772 471.107 795.435 473.64 795.435 477.21V487.563L795.996 492.051L790.743 492.561L790.233 490.215C787.377 491.779 785.116 492.561 783.45 492.561ZM801.657 492V457.983H806.91V469.56C809.018 468.098 810.99 467.367 812.826 467.367C816.362 467.367 818.912 468.404 820.476 470.478C822.04 472.518 822.822 475.714 822.822 480.066C822.822 484.418 821.853 487.597 819.915 489.603C818.011 491.575 815.478 492.561 812.316 492.561C810.854 492.561 809.035 492.034 806.859 490.98L806.757 492H801.657ZM812.163 472.314C810.497 472.314 808.746 473.079 806.91 474.609V486.084C808.95 487.104 810.786 487.614 812.418 487.614C814.05 487.614 815.24 487.002 815.988 485.778C816.77 484.52 817.161 482.599 817.161 480.015C817.161 474.881 815.495 472.314 812.163 472.314ZM827.565 492V487.308H835.164V462.726L828.585 462.777L828.534 458.136L840.417 458.085V487.308H847.608V492H827.565ZM852.249 479.913C852.249 475.799 853.167 472.688 855.003 470.58C856.839 468.438 859.389 467.367 862.653 467.367C865.917 467.367 868.433 468.336 870.201 470.274C872.003 472.178 872.938 474.983 873.006 478.689L872.802 482.463H857.91C858.216 486.135 860.052 487.971 863.418 487.971C865.764 487.971 868.246 487.546 870.864 486.696L871.935 491.133C870.847 491.507 869.436 491.83 867.702 492.102C865.968 492.408 864.54 492.561 863.418 492.561C855.972 492.561 852.249 488.345 852.249 479.913ZM862.857 472.11C861.259 472.11 860.052 472.586 859.236 473.538C858.454 474.456 858.012 476.003 857.91 478.179H867.345C867.345 474.133 865.849 472.11 862.857 472.11ZM902.739 467.775H908.298L913.602 485.115H914.01L919.059 467.775H924.567L915.54 496.131C914.69 498.783 913.602 500.483 912.276 501.231C910.984 502.013 908.638 502.438 905.238 502.506V497.814C906.87 497.746 908.094 497.508 908.91 497.1C909.76 496.726 910.321 496.08 910.593 495.162L911.154 493.377L902.739 467.775ZM930.993 470.478C932.727 468.404 935.396 467.367 939 467.367C942.604 467.367 945.273 468.404 947.007 470.478C948.741 472.518 949.608 475.68 949.608 479.964C949.608 484.248 948.741 487.444 947.007 489.552C945.273 491.626 942.604 492.663 939 492.663C935.396 492.663 932.727 491.626 930.993 489.552C929.259 487.444 928.392 484.248 928.392 479.964C928.392 475.68 929.259 472.518 930.993 470.478ZM935.073 474.099C934.393 475.289 934.053 477.244 934.053 479.964C934.053 482.684 934.41 484.656 935.124 485.88C935.838 487.104 937.13 487.716 939 487.716C940.87 487.716 942.162 487.104 942.876 485.88C943.59 484.656 943.947 482.684 943.947 479.964C943.947 477.244 943.59 475.289 942.876 474.099C942.196 472.909 940.904 472.314 939 472.314C937.096 472.314 935.787 472.909 935.073 474.099ZM969.09 492L968.988 490.215C966.268 491.745 964.058 492.51 962.358 492.51C959.604 492.51 957.598 491.728 956.34 490.164C955.082 488.566 954.453 486.033 954.453 482.565V467.775H959.706V482.259C959.706 485.761 960.845 487.512 963.123 487.512C964.925 487.512 966.863 486.815 968.937 485.421V467.775H974.19V492H969.09ZM980.361 492V487.308H985.308V472.467H980.361V467.775H990.561L990.663 470.223C993.247 468.761 996.205 467.843 999.537 467.469H1000.91V472.569H999.537C995.797 472.909 992.839 473.691 990.663 474.915V487.41H998.262V492H980.361ZM1048.7 467.775H1053.8L1051.15 492H1042.53L1041.2 480.933H1040.75L1039.78 492H1030.95L1028.15 467.775H1033.45L1035.44 487.308H1036L1037.18 475.731H1044.83L1046.2 487.308H1046.81L1048.7 467.775ZM1056.25 479.913C1056.25 475.799 1057.17 472.688 1059 470.58C1060.84 468.438 1063.39 467.367 1066.65 467.367C1069.92 467.367 1072.43 468.336 1074.2 470.274C1076 472.178 1076.94 474.983 1077.01 478.689L1076.8 482.463H1061.91C1062.22 486.135 1064.05 487.971 1067.42 487.971C1069.76 487.971 1072.25 487.546 1074.86 486.696L1075.94 491.133C1074.85 491.507 1073.44 491.83 1071.7 492.102C1069.97 492.408 1068.54 492.561 1067.42 492.561C1059.97 492.561 1056.25 488.345 1056.25 479.913ZM1066.86 472.11C1065.26 472.11 1064.05 472.586 1063.24 473.538C1062.45 474.456 1062.01 476.003 1061.91 478.179H1071.35C1071.35 474.133 1069.85 472.11 1066.86 472.11ZM1082.16 492V457.983H1087.41V469.56C1089.52 468.098 1091.49 467.367 1093.33 467.367C1096.86 467.367 1099.41 468.404 1100.98 470.478C1102.54 472.518 1103.32 475.714 1103.32 480.066C1103.32 484.418 1102.35 487.597 1100.42 489.603C1098.51 491.575 1095.98 492.561 1092.82 492.561C1091.35 492.561 1089.54 492.034 1087.36 490.98L1087.26 492H1082.16ZM1092.66 472.314C1091 472.314 1089.25 473.079 1087.41 474.609V486.084C1089.45 487.104 1091.29 487.614 1092.92 487.614C1094.55 487.614 1095.74 487.002 1096.49 485.778C1097.27 484.52 1097.66 482.599 1097.66 480.015C1097.66 474.881 1096 472.314 1092.66 472.314ZM764.376 527.598V523.416C763.594 523.28 762.829 523.212 762.081 523.212C759.973 523.212 758.494 523.824 757.644 525.048C756.828 526.272 756.42 528.21 756.42 530.862C756.42 533.514 756.845 535.486 757.695 536.778C758.579 538.036 760.109 538.665 762.285 538.665C764.461 538.665 766.688 538.359 768.966 537.747L769.731 542.643C767.351 543.323 764.801 543.663 762.081 543.663C754.533 543.663 750.759 539.413 750.759 530.913C750.759 526.527 751.609 523.331 753.309 521.325C755.043 519.285 757.916 518.265 761.928 518.265C764.512 518.265 766.994 518.588 769.374 519.234V527.598H764.376ZM784.266 538.614C785.218 538.614 786.272 538.393 787.428 537.951C788.584 537.509 789.502 537.016 790.182 536.472V532.902C788.142 532.732 786.476 532.647 785.184 532.647C782.362 532.647 780.951 533.701 780.951 535.809C780.951 537.679 782.056 538.614 784.266 538.614ZM783.45 543.561C778.01 543.561 775.29 540.977 775.29 535.809C775.29 533.055 776.157 531.134 777.891 530.046C779.659 528.924 782.09 528.363 785.184 528.363C786.646 528.363 788.312 528.448 790.182 528.618C790.182 526.578 789.893 525.184 789.315 524.436C788.737 523.688 787.734 523.314 786.306 523.314C784.878 523.314 783.212 523.484 781.308 523.824C779.404 524.164 777.942 524.504 776.922 524.844L775.953 519.999C779.523 518.911 783.008 518.367 786.408 518.367C789.808 518.367 792.154 519.115 793.446 520.611C794.772 522.107 795.435 524.64 795.435 528.21V538.563L795.996 543.051L790.743 543.561L790.233 541.215C787.377 542.779 785.116 543.561 783.45 543.561ZM804.921 518.775L805.074 520.152C806.366 518.962 807.624 518.367 808.848 518.367C810.582 518.367 811.891 519.013 812.775 520.305C814.543 519.013 816.107 518.367 817.467 518.367C819.507 518.367 820.952 518.962 821.802 520.152C822.686 521.342 823.128 523.552 823.128 526.782V543H817.926V529.026C817.926 525.898 817.654 524.096 817.11 523.62C816.838 523.348 816.447 523.212 815.937 523.212C815.427 523.212 814.781 523.552 813.999 524.232C814.169 525.014 814.254 526.612 814.254 529.026V534.687H809.103V529.026C809.103 525.932 808.916 524.13 808.542 523.62C808.338 523.348 807.981 523.212 807.471 523.212C806.995 523.212 806.264 523.586 805.278 524.334V543H799.923V518.775H804.921ZM826.749 530.913C826.749 526.799 827.667 523.688 829.503 521.58C831.339 519.438 833.889 518.367 837.153 518.367C840.417 518.367 842.933 519.336 844.701 521.274C846.503 523.178 847.438 525.983 847.506 529.689L847.302 533.463H832.41C832.716 537.135 834.552 538.971 837.918 538.971C840.264 538.971 842.746 538.546 845.364 537.696L846.435 542.133C845.347 542.507 843.936 542.83 842.202 543.102C840.468 543.408 839.04 543.561 837.918 543.561C830.472 543.561 826.749 539.345 826.749 530.913ZM837.357 523.11C835.759 523.11 834.552 523.586 833.736 524.538C832.954 525.456 832.512 527.003 832.41 529.179H841.845C841.845 525.133 840.349 523.11 837.357 523.11ZM852.861 543V538.308H857.808V523.467H852.861V518.775H863.061L863.163 521.223C865.747 519.761 868.705 518.843 872.037 518.469H873.414V523.569H872.037C868.297 523.909 865.339 524.691 863.163 525.915V538.41H870.762V543H852.861ZM886.266 538.614C887.218 538.614 888.272 538.393 889.428 537.951C890.584 537.509 891.502 537.016 892.182 536.472V532.902C890.142 532.732 888.476 532.647 887.184 532.647C884.362 532.647 882.951 533.701 882.951 535.809C882.951 537.679 884.056 538.614 886.266 538.614ZM885.45 543.561C880.01 543.561 877.29 540.977 877.29 535.809C877.29 533.055 878.157 531.134 879.891 530.046C881.659 528.924 884.09 528.363 887.184 528.363C888.646 528.363 890.312 528.448 892.182 528.618C892.182 526.578 891.893 525.184 891.315 524.436C890.737 523.688 889.734 523.314 888.306 523.314C886.878 523.314 885.212 523.484 883.308 523.824C881.404 524.164 879.942 524.504 878.922 524.844L877.953 519.999C881.523 518.911 885.008 518.367 888.408 518.367C891.808 518.367 894.154 519.115 895.446 520.611C896.772 522.107 897.435 524.64 897.435 528.21V538.563L897.996 543.051L892.743 543.561L892.233 541.215C889.377 542.779 887.116 543.561 885.45 543.561ZM929.004 543V538.308H934.563V523.467H929.208V518.775H934.563C934.563 515.103 935.158 512.519 936.348 511.023C937.572 509.493 939.68 508.728 942.672 508.728C944.678 508.728 946.888 509.017 949.302 509.595L948.486 514.236C946.378 513.76 944.61 513.522 943.182 513.522C941.754 513.522 940.836 513.879 940.428 514.593C940.02 515.307 939.816 516.701 939.816 518.775H948.69V523.467H939.816V538.308H948.792V543H929.004ZM956.493 521.478C958.227 519.404 960.896 518.367 964.5 518.367C968.104 518.367 970.773 519.404 972.507 521.478C974.241 523.518 975.108 526.68 975.108 530.964C975.108 535.248 974.241 538.444 972.507 540.552C970.773 542.626 968.104 543.663 964.5 543.663C960.896 543.663 958.227 542.626 956.493 540.552C954.759 538.444 953.892 535.248 953.892 530.964C953.892 526.68 954.759 523.518 956.493 521.478ZM960.573 525.099C959.893 526.289 959.553 528.244 959.553 530.964C959.553 533.684 959.91 535.656 960.624 536.88C961.338 538.104 962.63 538.716 964.5 538.716C966.37 538.716 967.662 538.104 968.376 536.88C969.09 535.656 969.447 533.684 969.447 530.964C969.447 528.244 969.09 526.289 968.376 525.099C967.696 523.909 966.404 523.314 964.5 523.314C962.596 523.314 961.287 523.909 960.573 525.099ZM980.361 543V538.308H985.308V523.467H980.361V518.775H990.561L990.663 521.223C993.247 519.761 996.205 518.843 999.537 518.469H1000.91V523.569H999.537C995.797 523.909 992.839 524.691 990.663 525.915V538.41H998.262V543H980.361ZM1039.27 538.614C1040.22 538.614 1041.27 538.393 1042.43 537.951C1043.58 537.509 1044.5 537.016 1045.18 536.472V532.902C1043.14 532.732 1041.48 532.647 1040.18 532.647C1037.36 532.647 1035.95 533.701 1035.95 535.809C1035.95 537.679 1037.06 538.614 1039.27 538.614ZM1038.45 543.561C1033.01 543.561 1030.29 540.977 1030.29 535.809C1030.29 533.055 1031.16 531.134 1032.89 530.046C1034.66 528.924 1037.09 528.363 1040.18 528.363C1041.65 528.363 1043.31 528.448 1045.18 528.618C1045.18 526.578 1044.89 525.184 1044.32 524.436C1043.74 523.688 1042.73 523.314 1041.31 523.314C1039.88 523.314 1038.21 523.484 1036.31 523.824C1034.4 524.164 1032.94 524.504 1031.92 524.844L1030.95 519.999C1034.52 518.911 1038.01 518.367 1041.41 518.367C1044.81 518.367 1047.15 519.115 1048.45 520.611C1049.77 522.107 1050.44 524.64 1050.44 528.21V538.563L1051 543.051L1045.74 543.561L1045.23 541.215C1042.38 542.779 1040.12 543.561 1038.45 543.561ZM687.315 594V589.308H694.914V564.726L688.335 564.777L688.284 560.136L700.167 560.085V589.308H707.358V594H687.315ZM712.611 594V589.308H720.21V574.467H713.019V569.775H725.463V589.308H732.654V594H712.611ZM722.556 566.256C721.536 566.256 720.72 565.95 720.108 565.338C719.53 564.692 719.241 563.859 719.241 562.839C719.241 561.819 719.547 561.003 720.159 560.391C720.771 559.779 721.587 559.473 722.607 559.473C723.661 559.473 724.46 559.779 725.004 560.391C725.582 560.969 725.871 561.785 725.871 562.839C725.871 563.893 725.582 564.726 725.004 565.338C724.426 565.95 723.61 566.256 722.556 566.256ZM736.581 569.775H742.14L746.934 589.308H748.821L753.36 569.775H758.97L752.799 594H743.007L736.581 569.775ZM762.999 581.913C762.999 577.799 763.917 574.688 765.753 572.58C767.589 570.438 770.139 569.367 773.403 569.367C776.667 569.367 779.183 570.336 780.951 572.274C782.753 574.178 783.688 576.983 783.756 580.689L783.552 584.463H768.66C768.966 588.135 770.802 589.971 774.168 589.971C776.514 589.971 778.996 589.546 781.614 588.696L782.685 593.133C781.597 593.507 780.186 593.83 778.452 594.102C776.718 594.408 775.29 594.561 774.168 594.561C766.722 594.561 762.999 590.345 762.999 581.913ZM773.607 574.11C772.009 574.11 770.802 574.586 769.986 575.538C769.204 576.456 768.762 578.003 768.66 580.179H778.095C778.095 576.133 776.599 574.11 773.607 574.11ZM834.756 559.983V589.767L835.266 594L830.115 594.51L829.656 592.164C827.446 593.762 825.287 594.561 823.179 594.561C820.017 594.561 817.637 593.643 816.039 591.807C814.441 589.937 813.642 586.792 813.642 582.372C813.642 577.952 814.611 574.688 816.549 572.58C818.487 570.438 821.003 569.367 824.097 569.367C825.899 569.367 827.718 569.758 829.554 570.54V559.983H834.756ZM823.536 589.665C825.338 589.665 827.344 588.747 829.554 586.911V575.538C827.786 574.688 826.052 574.263 824.352 574.263C820.986 574.263 819.303 576.966 819.303 582.372C819.303 587.234 820.714 589.665 823.536 589.665ZM839.499 581.913C839.499 577.799 840.417 574.688 842.253 572.58C844.089 570.438 846.639 569.367 849.903 569.367C853.167 569.367 855.683 570.336 857.451 572.274C859.253 574.178 860.188 576.983 860.256 580.689L860.052 584.463H845.16C845.466 588.135 847.302 589.971 850.668 589.971C853.014 589.971 855.496 589.546 858.114 588.696L859.185 593.133C858.097 593.507 856.686 593.83 854.952 594.102C853.218 594.408 851.79 594.561 850.668 594.561C843.222 594.561 839.499 590.345 839.499 581.913ZM850.107 574.11C848.509 574.11 847.302 574.586 846.486 575.538C845.704 576.456 845.262 578.003 845.16 580.179H854.595C854.595 576.133 853.099 574.11 850.107 574.11ZM868.671 569.775L868.824 571.152C870.116 569.962 871.374 569.367 872.598 569.367C874.332 569.367 875.641 570.013 876.525 571.305C878.293 570.013 879.857 569.367 881.217 569.367C883.257 569.367 884.702 569.962 885.552 571.152C886.436 572.342 886.878 574.552 886.878 577.782V594H881.676V580.026C881.676 576.898 881.404 575.096 880.86 574.62C880.588 574.348 880.197 574.212 879.687 574.212C879.177 574.212 878.531 574.552 877.749 575.232C877.919 576.014 878.004 577.612 878.004 580.026V585.687H872.853V580.026C872.853 576.932 872.666 575.13 872.292 574.62C872.088 574.348 871.731 574.212 871.221 574.212C870.745 574.212 870.014 574.586 869.028 575.334V594H863.673V569.775H868.671ZM892.743 572.478C894.477 570.404 897.146 569.367 900.75 569.367C904.354 569.367 907.023 570.404 908.757 572.478C910.491 574.518 911.358 577.68 911.358 581.964C911.358 586.248 910.491 589.444 908.757 591.552C907.023 593.626 904.354 594.663 900.75 594.663C897.146 594.663 894.477 593.626 892.743 591.552C891.009 589.444 890.142 586.248 890.142 581.964C890.142 577.68 891.009 574.518 892.743 572.478ZM896.823 576.099C896.143 577.289 895.803 579.244 895.803 581.964C895.803 584.684 896.16 586.656 896.874 587.88C897.588 589.104 898.88 589.716 900.75 589.716C902.62 589.716 903.912 589.104 904.626 587.88C905.34 586.656 905.697 584.684 905.697 581.964C905.697 579.244 905.34 577.289 904.626 576.099C903.946 574.909 902.654 574.314 900.75 574.314C898.846 574.314 897.537 574.909 896.823 576.099ZM921.456 569.775L921.558 571.254C924.312 569.996 926.471 569.367 928.035 569.367C930.789 569.367 932.812 570.183 934.104 571.815C935.43 573.413 936.093 575.929 936.093 579.363V594H930.84V579.516C930.84 577.884 930.551 576.609 929.973 575.691C929.395 574.773 928.494 574.314 927.27 574.314C926.046 574.314 924.159 574.909 921.609 576.099V594H916.356V569.775H921.456ZM942.213 592.878L943.335 588.237C946.565 589.257 949.132 589.767 951.036 589.767C952.94 589.767 954.232 589.58 954.912 589.206C955.592 588.866 955.932 588.254 955.932 587.37C955.932 586.486 955.626 585.857 955.014 585.483C954.402 585.109 953.246 584.718 951.546 584.31C948.18 583.494 945.834 582.593 944.508 581.607C943.182 580.587 942.519 578.938 942.519 576.66C942.519 571.798 945.647 569.367 951.903 569.367C954.589 569.367 957.7 569.809 961.236 570.693L960.267 575.538C956.901 574.586 954.3 574.11 952.464 574.11C950.628 574.11 949.387 574.28 948.741 574.62C948.129 574.926 947.823 575.47 947.823 576.252C947.823 577.034 948.129 577.612 948.741 577.986C949.387 578.326 951.019 578.853 953.637 579.567C956.255 580.281 958.176 581.114 959.4 582.066C960.624 582.984 961.236 584.565 961.236 586.809C961.236 591.943 958.074 594.51 951.75 594.51C948.792 594.51 945.613 593.966 942.213 592.878ZM967.509 574.467V569.775H971.64V563.961L976.893 563.451V569.775H986.43V574.467H976.893V584.667C976.893 586.537 977.08 587.863 977.454 588.645C977.828 589.393 978.593 589.767 979.749 589.767C981.755 589.767 984.101 589.444 986.787 588.798L987.654 593.337C984.696 594.119 982.061 594.51 979.749 594.51C976.485 594.51 974.309 593.779 973.221 592.317C972.167 590.855 971.64 588.305 971.64 584.667V574.467H967.509ZM993.111 594V589.308H998.058V574.467H993.111V569.775H1003.31L1003.41 572.223C1006 570.761 1008.96 569.843 1012.29 569.469H1013.66V574.569H1012.29C1008.55 574.909 1005.59 575.691 1003.41 576.915V589.41H1011.01V594H993.111ZM1026.52 589.614C1027.47 589.614 1028.52 589.393 1029.68 588.951C1030.83 588.509 1031.75 588.016 1032.43 587.472V583.902C1030.39 583.732 1028.73 583.647 1027.43 583.647C1024.61 583.647 1023.2 584.701 1023.2 586.809C1023.2 588.679 1024.31 589.614 1026.52 589.614ZM1025.7 594.561C1020.26 594.561 1017.54 591.977 1017.54 586.809C1017.54 584.055 1018.41 582.134 1020.14 581.046C1021.91 579.924 1024.34 579.363 1027.43 579.363C1028.9 579.363 1030.56 579.448 1032.43 579.618C1032.43 577.578 1032.14 576.184 1031.57 575.436C1030.99 574.688 1029.98 574.314 1028.56 574.314C1027.13 574.314 1025.46 574.484 1023.56 574.824C1021.65 575.164 1020.19 575.504 1019.17 575.844L1018.2 570.999C1021.77 569.911 1025.26 569.367 1028.66 569.367C1032.06 569.367 1034.4 570.115 1035.7 571.611C1037.02 573.107 1037.69 575.64 1037.69 579.21V589.563L1038.25 594.051L1032.99 594.561L1032.48 592.215C1029.63 593.779 1027.37 594.561 1025.7 594.561ZM1044.01 574.467V569.775H1048.14V563.961L1053.39 563.451V569.775H1062.93V574.467H1053.39V584.667C1053.39 586.537 1053.58 587.863 1053.95 588.645C1054.33 589.393 1055.09 589.767 1056.25 589.767C1058.26 589.767 1060.6 589.444 1063.29 588.798L1064.15 593.337C1061.2 594.119 1058.56 594.51 1056.25 594.51C1052.99 594.51 1050.81 593.779 1049.72 592.317C1048.67 590.855 1048.14 588.305 1048.14 584.667V574.467H1044.01ZM1069.61 594V589.308H1077.21V574.467H1070.02V569.775H1082.46V589.308H1089.65V594H1069.61ZM1079.56 566.256C1078.54 566.256 1077.72 565.95 1077.11 565.338C1076.53 564.692 1076.24 563.859 1076.24 562.839C1076.24 561.819 1076.55 561.003 1077.16 560.391C1077.77 559.779 1078.59 559.473 1079.61 559.473C1080.66 559.473 1081.46 559.779 1082 560.391C1082.58 560.969 1082.87 561.785 1082.87 562.839C1082.87 563.893 1082.58 564.726 1082 565.338C1081.43 565.95 1080.61 566.256 1079.56 566.256ZM1096.74 572.478C1098.48 570.404 1101.15 569.367 1104.75 569.367C1108.35 569.367 1111.02 570.404 1112.76 572.478C1114.49 574.518 1115.36 577.68 1115.36 581.964C1115.36 586.248 1114.49 589.444 1112.76 591.552C1111.02 593.626 1108.35 594.663 1104.75 594.663C1101.15 594.663 1098.48 593.626 1096.74 591.552C1095.01 589.444 1094.14 586.248 1094.14 581.964C1094.14 577.68 1095.01 574.518 1096.74 572.478ZM1100.82 576.099C1100.14 577.289 1099.8 579.244 1099.8 581.964C1099.8 584.684 1100.16 586.656 1100.87 587.88C1101.59 589.104 1102.88 589.716 1104.75 589.716C1106.62 589.716 1107.91 589.104 1108.63 587.88C1109.34 586.656 1109.7 584.684 1109.7 581.964C1109.7 579.244 1109.34 577.289 1108.63 576.099C1107.95 574.909 1106.65 574.314 1104.75 574.314C1102.85 574.314 1101.54 574.909 1100.82 576.099ZM1125.46 569.775L1125.56 571.254C1128.31 569.996 1130.47 569.367 1132.04 569.367C1134.79 569.367 1136.81 570.183 1138.1 571.815C1139.43 573.413 1140.09 575.929 1140.09 579.363V594H1134.84V579.516C1134.84 577.884 1134.55 576.609 1133.97 575.691C1133.4 574.773 1132.49 574.314 1131.27 574.314C1130.05 574.314 1128.16 574.909 1125.61 576.099V594H1120.36V569.775H1125.46Z" fill="#625959" fill-opacity="0.37"/>
<g id="WebcamIcon">
<path fill-rule="evenodd" clip-rule="evenodd" d="M905.935 660.548C907.958 660.224 909.629 661.915 909.629 663.964V676.519L909.638 676.797C909.839 679.623 913.076 681.222 915.459 679.564L925.764 672.389C927.445 671.218 929.788 671.623 930.679 673.468L930.837 673.803C932.39 677.157 933.133 680.849 932.98 684.577L932.962 684.949C932.665 690.169 930.625 695.14 927.17 699.064C923.714 702.988 919.041 705.64 913.9 706.596C908.759 707.551 903.445 706.755 898.81 704.335C894.32 701.99 890.717 698.252 888.538 693.689L888.332 693.244C886.178 688.48 885.685 683.131 886.931 678.053C888.177 672.975 891.091 668.462 895.206 665.235C898.343 662.776 902.039 661.172 905.935 660.548ZM902.952 668.324C901.665 668.885 900.447 669.611 899.327 670.489C896.388 672.793 894.307 676.017 893.417 679.644C892.526 683.271 892.878 687.092 894.416 690.495C895.955 693.899 898.59 696.688 901.901 698.417C905.212 700.146 909.008 700.714 912.68 700.032C916.352 699.349 919.689 697.454 922.158 694.651C924.626 691.848 926.084 688.299 926.296 684.57C926.377 683.15 926.275 681.736 926 680.36L919.274 685.042C912.388 689.837 902.952 684.91 902.952 676.519V668.324Z" fill="#C5BD7D"/>
<path fill-rule="evenodd" clip-rule="evenodd" d="M922.984 649.869C928.516 649.869 933 654.353 933 659.884C933 665.415 928.516 669.898 922.984 669.898C917.452 669.898 912.968 665.415 912.968 659.884C912.968 654.353 917.452 649.869 922.984 649.869ZM922.984 656.545C921.14 656.545 919.645 658.04 919.645 659.884C919.645 661.727 921.14 663.222 922.984 663.222C924.828 663.222 926.323 661.727 926.323 659.884C926.323 658.04 924.828 656.545 922.984 656.545Z" fill="#C5BD7D"/>
<path fill-rule="evenodd" clip-rule="evenodd" d="M910 638C935.405 638 956 658.592 956 683.993C956 701.231 946.514 716.254 932.477 724.129C933.61 725.76 934.57 727.511 935.334 729.354C936.162 731.355 936.753 733.44 937.097 735.568C937.488 737.995 935.459 740 933 740H886.258L886.029 739.994C883.675 739.874 881.782 737.919 882.161 735.568C882.483 733.573 883.022 731.616 883.771 729.73L883.924 729.354C884.735 727.397 885.766 725.544 886.993 723.828C873.247 715.874 864 701.013 864 683.993C864 658.592 884.595 638 910 638ZM893.121 726.79C891.878 728.343 890.857 730.065 890.093 731.91C889.9 732.375 889.727 732.847 889.569 733.324H929.69C929.531 732.847 929.358 732.375 929.165 731.91C928.437 730.152 927.476 728.504 926.311 727.009C921.241 728.932 915.744 729.985 910 729.985C904.041 729.985 898.347 728.852 893.121 726.79ZM909.629 718.858C906.852 718.858 904.103 719.405 901.537 720.468C900.653 720.834 899.797 721.26 898.973 721.741C902.472 722.761 906.172 723.309 910 723.309C913.647 723.309 917.177 722.811 920.528 721.883C919.63 721.343 918.692 720.87 917.721 720.467C915.155 719.405 912.406 718.858 909.629 718.858ZM910 644.676C888.283 644.676 870.677 662.279 870.677 683.993C870.677 699.079 879.176 712.181 891.648 718.773C893.669 717.062 895.926 715.644 898.352 714.569L898.982 714.299C902.357 712.901 905.975 712.182 909.629 712.182L910.314 712.191C913.734 712.275 917.112 712.989 920.276 714.299C923.056 715.451 925.626 717.044 927.89 719.013C940.613 712.503 949.323 699.265 949.323 683.993C949.323 662.279 931.717 644.676 910 644.676Z" fill="#C5BD7D"/>
</g>
</g>
<line id="Line 1" x1="279.5" y1="1085" x2="279.5" y2="580" stroke="#306A46" stroke-width="15"/>
<path id="Line 3" d="M237.5 1085L237.5 846M195.5 1085L195.5 890" stroke="#306A46" stroke-width="15"/>
<path id="Line 16" d="M194 280L194 41M153 324L153 84.9997" stroke="#306A46" stroke-width="15"/>
<path id="Line 4" d="M245 853.5L-3.84658e-06 853.5M203 897.5L47.5 897.5" stroke="#306A46" stroke-width="15"/>
<path id="Line 15" d="M201.5 48L-3.8466e-06 48M160.5 92L0 92" stroke="#306A46" stroke-width="15"/>
<line id="Line 2" x1="321.5" y1="1085" x2="321.5" y2="763" stroke="#306A46" stroke-width="15"/>
<path id="Line 9" d="M0 725.5H245" stroke="#306A46" stroke-width="15"/>
<path id="Line 5" d="M1730.11 909L1470 909M1778 950L1517.89 950" stroke="#306A46" stroke-width="15"/>
<path id="Line 8" d="M197.113 763L-3.58434e-06 763M245 804H0" stroke="#306A46" stroke-width="15"/>
<path id="Line 7" d="M1811.11 48L1551 48M1811.11 89.0001H1598.89" stroke="#306A46" stroke-width="15"/>
<path id="Line 27" d="M1811.11 422L1551 422M1574 140.5L1605.5 90.5" stroke="#306A46" stroke-width="15"/>
<path id="Line 28" d="M1801.48 422L1551 422M1810.5 476L1597.95 476" stroke="#306A46" stroke-width="15"/>
<path id="Line 6" d="M1477.5 901L1477.5 1085M1521.5 943L1521.5 1085" stroke="#306A46" stroke-width="15"/>
<line id="Line 24" x1="1557.45" y1="186.646" x2="1478.45" y2="44.6462" stroke="#306A46" stroke-width="15"/>
<line id="Line 25" x1="1410.54" y1="-3.66721" x2="1535.54" y2="219.333" stroke="#306A46" stroke-width="15"/>
<line id="Line 29" x1="1374.59" y1="-3.58958" x2="1513.59" y2="251.41" stroke="#306A46" stroke-width="15"/>
<line id="Line 23" x1="1686" y1="182.5" x2="1551" y2="182.5" stroke="#306A46" stroke-width="15"/>
<path id="Line 10" d="M367.887 1051L628 1051M320 1013L580.113 1013" stroke="#306A46" stroke-width="15"/>
<line id="Line 26" x1="1529" y1="216.5" x2="1703" y2="216.5" stroke="#306A46" stroke-width="15"/>
<line id="Line 30" x1="1506" y1="247.5" x2="1639" y2="247.5" stroke="#306A46" stroke-width="15"/>
<line id="Line 32" x1="449.527" y1="118.789" x2="377.527" y2="-4.21115" stroke="#306A46" stroke-width="15"/>
<line id="Line 33" x1="304.517" y1="-64.7113" x2="427.517" y2="151.289" stroke="#306A46" stroke-width="15"/>
<line id="Line 34" x1="261.567" y1="-77.6231" x2="405.567" y2="183.377" stroke="#306A46" stroke-width="15"/>
<line id="Line 35" x1="543" y1="114.5" x2="443" y2="114.5" stroke="#306A46" stroke-width="15"/>
<line id="Line 36" x1="421" y1="148.5" x2="513" y2="148.5" stroke="#306A46" stroke-width="15"/>
<line id="Line 37" x1="398" y1="179.5" x2="590" y2="179.5" stroke="#306A46" stroke-width="15"/>
<line id="Line 53" x1="511" y1="618.5" x2="324" y2="618.5" stroke="#306A46" stroke-width="15"/>
<line id="Line 54" x1="421" y1="652.5" x2="511" y2="652.5" stroke="#306A46" stroke-width="15"/>
<line id="Line 55" x1="398" y1="683.5" x2="511" y2="683.5" stroke="#306A46" stroke-width="15"/>
<line id="Line 38" x1="1629.45" y1="797.646" x2="1550.45" y2="655.646" stroke="#306A46" stroke-width="15"/>
<line id="Line 39" x1="1477.52" y1="601.297" x2="1607.52" y2="830.297" stroke="#306A46" stroke-width="15"/>
<line id="Line 40" x1="1441.57" y1="601.377" x2="1585.57" y2="862.377" stroke="#306A46" stroke-width="15"/>
<line id="Line 41" x1="1723" y1="793.5" x2="1623" y2="793.5" stroke="#306A46" stroke-width="15"/>
<line id="Line 42" x1="1601" y1="827.5" x2="1794" y2="827.5" stroke="#306A46" stroke-width="15"/>
<line id="Line 43" x1="1578" y1="858.5" x2="1654" y2="858.5" stroke="#306A46" stroke-width="15"/>
<line id="Line 44" x1="1587.73" y1="734.717" x2="1455.51" y2="506.987" stroke="#306A46" stroke-width="15"/>
<line id="Line 45" x1="1623.68" y1="734.289" x2="1477.16" y2="474.696" stroke="#306A46" stroke-width="15"/>
<line id="Line 46" x1="1408" y1="550.5" x2="1447" y2="550.5" stroke="#306A46" stroke-width="15"/>
<line id="Line 49" x1="1440.51" y1="547.282" x2="1490.09" y2="634.126" stroke="#306A46" stroke-width="15"/>
<line id="Line 47" x1="1462" y1="510.5" x2="1387" y2="510.5" stroke="#306A46" stroke-width="15"/>
<line id="Line 48" x1="1484" y1="478.5" x2="1336" y2="478.5" stroke="#306A46" stroke-width="15"/>
<rect id="Rectangle 3" x="1679" y="161" width="180" height="189" rx="16" fill="#FFF893" stroke="#E6B541" stroke-width="16" stroke-linecap="round" stroke-dasharray="80 120 180 240"/>
<path id="Rectangle 2" d="M-198 958C-198 946.954 -189.046 938 -178 938H133C144.046 938 153 946.954 153 958V1165C153 1176.05 144.046 1185 133 1185H-178C-189.046 1185 -198 1176.05 -198 1165V958Z" fill="#FFF893" stroke="#E6B541" stroke-width="17" stroke-linecap="round" stroke-dasharray="30.4 30.4"/>
<circle id="Ellipse 5" cx="321" cy="728" r="16" fill="#E6B441"/>
<path id="Ellipse 17" d="M375.546 412.799C375.546 421.636 368.383 428.799 359.546 428.799C350.71 428.799 343.546 421.636 343.546 412.799C343.546 403.963 350.71 396.799 359.546 396.799C368.383 396.799 375.546 403.963 375.546 412.799Z" fill="#E6B441"/>
<path id="Rectangle 4" d="M1392 600C1392 588.954 1400.95 580 1412 580H1659C1670.05 580 1679 588.954 1679 600V763C1679 774.046 1670.05 783 1659 783H1412C1400.95 783 1392 774.046 1392 763V600Z" fill="#625959" stroke="#9FC2AC" stroke-width="15" stroke-linecap="round" stroke-dasharray="100 60 80 90"/>
<circle id="Ellipse 1" cx="234" cy="726" r="18" fill="#306A46"/>
<circle id="Ellipse 16" cx="420" cy="653" r="18" fill="#306A46"/>
<circle id="Ellipse 9" cx="153" cy="324" r="18" fill="#306A46"/>
<circle id="Ellipse 4" cx="28" cy="687" r="16" fill="#E6B441"/>
<path id="Ellipse 10" d="M268 270.5C268 280.441 259.941 288.5 250 288.5C240.059 288.5 232 280.441 232 270.5C232 260.559 240.059 252.5 250 252.5C259.941 252.5 268 260.559 268 270.5Z" fill="#306A46"/>
<circle id="Ellipse 6" cx="1778" cy="950" r="16" fill="#E6B441"/>
<circle id="Ellipse 7" cx="1437" cy="1059" r="16" fill="#E6B441"/>
<circle id="Ellipse 12" cx="1551" cy="424" r="16" fill="#E6B441"/>
<circle id="Ellipse 13" cx="1477" cy="41" r="16" fill="#E6B441"/>
<circle id="Ellipse 8" cx="379" cy="1051" r="16" fill="#E6B441"/>
<circle id="Ellipse 2" cx="1723" cy="909" r="18" fill="#306A46"/>
<circle id="Ellipse 15" cx="1386" cy="510" r="18" fill="#306A46"/>
<path id="Ellipse 3" d="M1625.1 90.3124C1624.45 100.232 1615.88 107.748 1605.96 107.099C1596.04 106.449 1588.53 97.8815 1589.18 87.9616C1589.82 78.0417 1598.39 70.5262 1608.31 71.1754C1618.23 71.8246 1625.75 80.3925 1625.1 90.3124Z" fill="#306A46"/>
<path id="Ellipse 14" d="M1649.1 347.312C1648.45 357.232 1639.88 364.748 1629.96 364.099C1620.04 363.449 1612.53 354.881 1613.18 344.962C1613.82 335.042 1622.39 327.526 1632.31 328.175C1642.23 328.825 1649.75 337.392 1649.1 347.312Z" fill="#306A46"/>
<line id="Line 12" x1="357" y1="964.5" x2="630" y2="964.5" stroke="#306A46" stroke-width="15"/>
<line id="Line 13" x1="625.303" y1="962.697" x2="696.303" y2="1033.7" stroke="#306A46" stroke-width="15"/>
<path id="Line 14" d="M693.5 1028L693.5 1085" stroke="#306A46" stroke-width="15"/>
<line id="Line 50" x1="526.034" y1="459.5" x2="314.235" y2="460.462" stroke="#306A46" stroke-width="15"/>
<line id="Line 51" y1="-7.5" x2="101.271" y2="-7.5" transform="matrix(-0.703189 -0.711003 0.698906 -0.715213 324.213 457)" stroke="#306A46" stroke-width="15"/>
<line id="Line 52" y1="-7.5" x2="70.1871" y2="-7.5" transform="matrix(-0.00295224 -0.999996 0.999995 -0.0030547 258.036 397.187)" stroke="#306A46" stroke-width="15"/>
<path id="Line 17" d="M250.5 -3.73133e-08L251.354 280.354" stroke="#306A46" stroke-width="15"/>
<line id="Line 19" x1="191" y1="371.5" x2="44" y2="371.5" stroke="#306A46" stroke-width="15"/>
<line id="Line 20" x1="194.5" y1="379" x2="194.5" y2="280" stroke="#306A46" stroke-width="15"/>
<circle id="Ellipse 11" cx="52" cy="372" r="16" fill="#E6B441"/>
<path id="Rectangle 5" d="M217 86C217 74.9543 225.954 66 237 66H266C277.046 66 286 74.9543 286 86V132C286 143.046 277.046 152 266 152H237C225.954 152 217 143.046 217 132V86Z" fill="#625959" stroke="#9FC2AC" stroke-width="10" stroke-linecap="round" stroke-dasharray="20 20"/>
<path id="Rectangle 6" d="M400.5 943C400.5 931.954 409.454 923 420.5 923H466.5C477.546 923 486.5 931.954 486.5 943V974C486.5 985.046 477.546 994 466.5 994H420.5C409.454 994 400.5 985.046 400.5 974V943Z" fill="#625959" stroke="#9FC2AC" stroke-width="10" stroke-linecap="round" stroke-dasharray="20 20"/>
<path id="Rectangle 8" d="M1741 1011C1741 999.954 1749.95 991 1761 991H1817C1828.05 991 1837 999.954 1837 1011V1042C1837 1053.05 1828.05 1062 1817 1062H1761C1749.95 1062 1741 1053.05 1741 1042V1011Z" fill="#625959" stroke="#9FC2AC" stroke-width="10" stroke-linecap="round" stroke-dasharray="20 20"/>
<line id="Line 31" x1="1631.5" y1="247" x2="1631.5" y2="350" stroke="#306A46" stroke-width="15"/>
<path id="VisionPCB" opacity="0.5" d="M593.25 194L571.5 95.75H588L606.45 180.05H609.6L627.3 95.75H643.35L622.35 194H593.25ZM654.15 194V180.2H676.5V136.55H655.35V122.75H691.95V180.2H713.1V194H654.15ZM683.4 112.4C680.4 112.4 678 111.5 676.2 109.7C674.5 107.8 673.65 105.35 673.65 102.35C673.65 99.35 674.55 96.95 676.35 95.15C678.15 93.35 680.55 92.45 683.55 92.45C686.65 92.45 689 93.35 690.6 95.15C692.3 96.85 693.15 99.25 693.15 102.35C693.15 105.45 692.3 107.9 690.6 109.7C688.9 111.5 686.5 112.4 683.4 112.4ZM729.45 190.7L732.75 177.05C742.25 180.05 749.8 181.55 755.4 181.55C761 181.55 764.8 181 766.8 179.9C768.8 178.9 769.8 177.1 769.8 174.5C769.8 171.9 768.9 170.05 767.1 168.95C765.3 167.85 761.9 166.7 756.9 165.5C747 163.1 740.1 160.45 736.2 157.55C732.3 154.55 730.35 149.7 730.35 143C730.35 128.7 739.55 121.55 757.95 121.55C765.85 121.55 775 122.85 785.4 125.45L782.55 139.7C772.65 136.9 765 135.5 759.6 135.5C754.2 135.5 750.55 136 748.65 137C746.85 137.9 745.95 139.5 745.95 141.8C745.95 144.1 746.85 145.8 748.65 146.9C750.55 147.9 755.35 149.45 763.05 151.55C770.75 153.65 776.4 156.1 780 158.9C783.6 161.6 785.4 166.25 785.4 172.85C785.4 187.95 776.1 195.5 757.5 195.5C748.8 195.5 739.45 193.9 729.45 190.7ZM804.15 194V180.2H826.5V136.55H805.35V122.75H841.95V180.2H863.1V194H804.15ZM833.4 112.4C830.4 112.4 828 111.5 826.2 109.7C824.5 107.8 823.65 105.35 823.65 102.35C823.65 99.35 824.55 96.95 826.35 95.15C828.15 93.35 830.55 92.45 833.55 92.45C836.65 92.45 839 93.35 840.6 95.15C842.3 96.85 843.15 99.25 843.15 102.35C843.15 105.45 842.3 107.9 840.6 109.7C838.9 111.5 836.5 112.4 833.4 112.4ZM883.95 130.7C889.05 124.6 896.9 121.55 907.5 121.55C918.1 121.55 925.95 124.6 931.05 130.7C936.15 136.7 938.7 146 938.7 158.6C938.7 171.2 936.15 180.6 931.05 186.8C925.95 192.9 918.1 195.95 907.5 195.95C896.9 195.95 889.05 192.9 883.95 186.8C878.85 180.6 876.3 171.2 876.3 158.6C876.3 146 878.85 136.7 883.95 130.7ZM895.95 141.35C893.95 144.85 892.95 150.6 892.95 158.6C892.95 166.6 894 172.4 896.1 176C898.2 179.6 902 181.4 907.5 181.4C913 181.4 916.8 179.6 918.9 176C921 172.4 922.05 166.6 922.05 158.6C922.05 150.6 921 144.85 918.9 141.35C916.9 137.85 913.1 136.1 907.5 136.1C901.9 136.1 898.05 137.85 895.95 141.35ZM968.4 122.75L968.7 127.1C976.8 123.4 983.15 121.55 987.75 121.55C995.85 121.55 1001.8 123.95 1005.6 128.75C1009.5 133.45 1011.45 140.85 1011.45 150.95V194H996V151.4C996 146.6 995.15 142.85 993.45 140.15C991.75 137.45 989.1 136.1 985.5 136.1C981.9 136.1 976.35 137.85 968.85 141.35V194H953.4V122.75H968.4ZM1057.2 162.5H1042.35V194H1026.75V95.75H1057.65C1069.05 95.75 1077.35 98.4 1082.55 103.7C1087.85 108.9 1090.5 117.1 1090.5 128.3C1090.5 151.1 1079.4 162.5 1057.2 162.5ZM1055.25 109.55H1042.35V148.25H1055.25C1061.95 148.25 1066.85 146.7 1069.95 143.6C1073.05 140.4 1074.6 135.3 1074.6 128.3C1074.6 121.3 1073 116.45 1069.8 113.75C1066.7 110.95 1061.85 109.55 1055.25 109.55ZM1101 143.9C1101 110.8 1113.1 94.25 1137.3 94.25C1144.9 94.25 1152.7 95.45 1160.7 97.85L1164.6 99.05V120.8H1149V109.7C1145.4 108.9 1142 108.4 1138.8 108.2H1137.3C1130.5 108.2 1125.4 110.85 1122 116.15C1118.6 121.45 1116.9 130.7 1116.9 143.9C1117.1 159.5 1118.9 169.8 1122.3 174.8C1124.1 177.4 1126.15 179.2 1128.45 180.2C1130.75 181.1 1133.7 181.55 1137.3 181.55C1145.5 181.75 1153.7 180.55 1161.9 177.95L1164.6 191C1161.3 192.1 1156.8 193.1 1151.1 194C1145.5 195 1140.85 195.5 1137.15 195.5C1124.95 195.7 1115.85 191.8 1109.85 183.8C1103.95 175.7 1101 162.4 1101 143.9ZM1176.75 194V95.75H1206.9C1228.7 95.75 1239.6 104.25 1239.6 121.25C1239.6 126.75 1238.2 131.5 1235.4 135.5C1232.6 139.5 1228.8 142 1224 143C1229.6 143.8 1233.95 146.25 1237.05 150.35C1240.25 154.35 1241.9 159.6 1242 166.1C1242 184.7 1229.85 194 1205.55 194H1176.75ZM1207.8 180.5C1214.4 180.5 1219.1 179.05 1221.9 176.15C1224.7 173.25 1226.1 169.4 1226.1 164.6C1226.1 159.7 1224.55 156.15 1221.45 153.95C1218.45 151.75 1213.65 150.65 1207.05 150.65H1192.35V180.5H1207.8ZM1224.3 122.45C1224.3 113.65 1218.85 109.25 1207.95 109.25H1192.35V137.15H1206.75C1218.45 137.15 1224.3 132.25 1224.3 122.45Z" fill="white"/>
<path id="Line 11" d="M620 1048L620 1085" stroke="#306A46" stroke-width="15"/>
</g>
</svg>
