<svg width="1810" height="1085" viewBox="0 0 1810 1085" fill="none" xmlns="http://www.w3.org/2000/svg">
<g clip-path="url(#clip0_2001_2)">
<rect width="1810" height="1085" fill="#3E8459"/>
<path d="M572.113 372L312 372M620 413L359.887 413" stroke="#306A46" stroke-width="15"/>
<path d="M1348 700L1087.89 700M1387.11 740L1127 740" stroke="#306A46" stroke-width="15"/>
<rect x="526" y="236" width="758" height="689" rx="20" fill="#FFF893" stroke="#E6B541" stroke-width="30" stroke-linecap="round" stroke-dasharray="80 120 180 240"/>
<path d="M652.92 421.04C652.92 414.587 654.36 409.707 657.24 406.4C660.12 403.04 664.12 401.36 669.24 401.36C674.36 401.36 678.307 402.88 681.08 405.92C683.907 408.907 685.373 413.307 685.48 419.12L685.16 425.04H661.8C662.28 430.8 665.16 433.68 670.44 433.68C674.12 433.68 678.013 433.013 682.12 431.68L683.8 438.64C682.093 439.227 679.88 439.733 677.16 440.16C674.44 440.64 672.2 440.88 670.44 440.88C658.76 440.88 652.92 434.267 652.92 421.04ZM669.56 408.8C667.053 408.8 665.16 409.547 663.88 411.04C662.653 412.48 661.96 414.907 661.8 418.32H676.6C676.6 411.973 674.253 408.8 669.56 408.8ZM701.48 402L701.64 404.32C705.96 402.347 709.347 401.36 711.8 401.36C716.12 401.36 719.293 402.64 721.32 405.2C723.4 407.707 724.44 411.653 724.44 417.04V440H716.2V417.28C716.2 414.72 715.747 412.72 714.84 411.28C713.933 409.84 712.52 409.12 710.6 409.12C708.68 409.12 705.72 410.053 701.72 411.92V440H693.48V402H701.48ZM746.28 433.12C747.773 433.12 749.427 432.773 751.24 432.08C753.053 431.387 754.493 430.613 755.56 429.76V424.16C752.36 423.893 749.747 423.76 747.72 423.76C743.293 423.76 741.08 425.413 741.08 428.72C741.08 431.653 742.813 433.12 746.28 433.12ZM745 440.88C736.467 440.88 732.2 436.827 732.2 428.72C732.2 424.4 733.56 421.387 736.28 419.68C739.053 417.92 742.867 417.04 747.72 417.04C750.013 417.04 752.627 417.173 755.56 417.44C755.56 414.24 755.107 412.053 754.2 410.88C753.293 409.707 751.72 409.12 749.48 409.12C747.24 409.12 744.627 409.387 741.64 409.92C738.653 410.453 736.36 410.987 734.76 411.52L733.24 403.92C738.84 402.213 744.307 401.36 749.64 401.36C754.973 401.36 758.653 402.533 760.68 404.88C762.76 407.227 763.8 411.2 763.8 416.8V433.04L764.68 440.08L756.44 440.88L755.64 437.2C751.16 439.653 747.613 440.88 745 440.88ZM773.56 440V386.64H781.8V404.8C785.107 402.507 788.2 401.36 791.08 401.36C796.627 401.36 800.627 402.987 803.08 406.24C805.533 409.44 806.76 414.453 806.76 421.28C806.76 428.107 805.24 433.093 802.2 436.24C799.213 439.333 795.24 440.88 790.28 440.88C787.987 440.88 785.133 440.053 781.72 438.4L781.56 440H773.56ZM790.04 409.12C787.427 409.12 784.68 410.32 781.8 412.72V430.72C785 432.32 787.88 433.12 790.44 433.12C793 433.12 794.867 432.16 796.04 430.24C797.267 428.267 797.88 425.253 797.88 421.2C797.88 413.147 795.267 409.12 790.04 409.12ZM814.2 440V432.64H826.12V394.08L815.8 394.16L815.72 386.88L834.36 386.8V432.64H845.64V440H814.2ZM852.92 421.04C852.92 414.587 854.36 409.707 857.24 406.4C860.12 403.04 864.12 401.36 869.24 401.36C874.36 401.36 878.307 402.88 881.08 405.92C883.907 408.907 885.373 413.307 885.48 419.12L885.16 425.04H861.8C862.28 430.8 865.16 433.68 870.44 433.68C874.12 433.68 878.013 433.013 882.12 431.68L883.8 438.64C882.093 439.227 879.88 439.733 877.16 440.16C874.44 440.64 872.2 440.88 870.44 440.88C858.76 440.88 852.92 434.267 852.92 421.04ZM869.56 408.8C867.053 408.8 865.16 409.547 863.88 411.04C862.653 412.48 861.96 414.907 861.8 418.32H876.6C876.6 411.973 874.253 408.8 869.56 408.8ZM961.08 402H969.08L964.92 440H951.4L949.32 422.64H948.6L947.08 440H933.24L928.84 402H937.16L940.28 432.64H941.16L943 414.48H955L957.16 432.64H958.12L961.08 402ZM972.92 421.04C972.92 414.587 974.36 409.707 977.24 406.4C980.12 403.04 984.12 401.36 989.24 401.36C994.36 401.36 998.307 402.88 1001.08 405.92C1003.91 408.907 1005.37 413.307 1005.48 419.12L1005.16 425.04H981.8C982.28 430.8 985.16 433.68 990.44 433.68C994.12 433.68 998.013 433.013 1002.12 431.68L1003.8 438.64C1002.09 439.227 999.88 439.733 997.16 440.16C994.44 440.64 992.2 440.88 990.44 440.88C978.76 440.88 972.92 434.267 972.92 421.04ZM989.56 408.8C987.053 408.8 985.16 409.547 983.88 411.04C982.653 412.48 981.96 414.907 981.8 418.32H996.6C996.6 411.973 994.253 408.8 989.56 408.8ZM1013.56 440V386.64H1021.8V404.8C1025.11 402.507 1028.2 401.36 1031.08 401.36C1036.63 401.36 1040.63 402.987 1043.08 406.24C1045.53 409.44 1046.76 414.453 1046.76 421.28C1046.76 428.107 1045.24 433.093 1042.2 436.24C1039.21 439.333 1035.24 440.88 1030.28 440.88C1027.99 440.88 1025.13 440.053 1021.72 438.4L1021.56 440H1013.56ZM1030.04 409.12C1027.43 409.12 1024.68 410.32 1021.8 412.72V430.72C1025 432.32 1027.88 433.12 1030.44 433.12C1033 433.12 1034.87 432.16 1036.04 430.24C1037.27 428.267 1037.88 425.253 1037.88 421.2C1037.88 413.147 1035.27 409.12 1030.04 409.12ZM1075.08 415.84V409.28C1073.85 409.067 1072.65 408.96 1071.48 408.96C1068.17 408.96 1065.85 409.92 1064.52 411.84C1063.24 413.76 1062.6 416.8 1062.6 420.96C1062.6 425.12 1063.27 428.213 1064.6 430.24C1065.99 432.213 1068.39 433.2 1071.8 433.2C1075.21 433.2 1078.71 432.72 1082.28 431.76L1083.48 439.44C1079.75 440.507 1075.75 441.04 1071.48 441.04C1059.64 441.04 1053.72 434.373 1053.72 421.04C1053.72 414.16 1055.05 409.147 1057.72 406C1060.44 402.8 1064.95 401.2 1071.24 401.2C1075.29 401.2 1079.19 401.707 1082.92 402.72V415.84H1075.08ZM1106.28 433.12C1107.77 433.12 1109.43 432.773 1111.24 432.08C1113.05 431.387 1114.49 430.613 1115.56 429.76V424.16C1112.36 423.893 1109.75 423.76 1107.72 423.76C1103.29 423.76 1101.08 425.413 1101.08 428.72C1101.08 431.653 1102.81 433.12 1106.28 433.12ZM1105 440.88C1096.47 440.88 1092.2 436.827 1092.2 428.72C1092.2 424.4 1093.56 421.387 1096.28 419.68C1099.05 417.92 1102.87 417.04 1107.72 417.04C1110.01 417.04 1112.63 417.173 1115.56 417.44C1115.56 414.24 1115.11 412.053 1114.2 410.88C1113.29 409.707 1111.72 409.12 1109.48 409.12C1107.24 409.12 1104.63 409.387 1101.64 409.92C1098.65 410.453 1096.36 410.987 1094.76 411.52L1093.24 403.92C1098.84 402.213 1104.31 401.36 1109.64 401.36C1114.97 401.36 1118.65 402.533 1120.68 404.88C1122.76 407.227 1123.8 411.2 1123.8 416.8V433.04L1124.68 440.08L1116.44 440.88L1115.64 437.2C1111.16 439.653 1107.61 440.88 1105 440.88ZM1138.68 402L1138.92 404.16C1140.95 402.293 1142.92 401.36 1144.84 401.36C1147.56 401.36 1149.61 402.373 1151 404.4C1153.77 402.373 1156.23 401.36 1158.36 401.36C1161.56 401.36 1163.83 402.293 1165.16 404.16C1166.55 406.027 1167.24 409.493 1167.24 414.56V440H1159.08V418.08C1159.08 413.173 1158.65 410.347 1157.8 409.6C1157.37 409.173 1156.76 408.96 1155.96 408.96C1155.16 408.96 1154.15 409.493 1152.92 410.56C1153.19 411.787 1153.32 414.293 1153.32 418.08V426.96H1145.24V418.08C1145.24 413.227 1144.95 410.4 1144.36 409.6C1144.04 409.173 1143.48 408.96 1142.68 408.96C1141.93 408.96 1140.79 409.547 1139.24 410.72V440H1130.84V402H1138.68ZM713.32 520V512.64H722.04V489.36H713.64V482H722.04C722.04 476.24 722.973 472.187 724.84 469.84C726.76 467.44 730.067 466.24 734.76 466.24C737.907 466.24 741.373 466.693 745.16 467.6L743.88 474.88C740.573 474.133 737.8 473.76 735.56 473.76C733.32 473.76 731.88 474.32 731.24 475.44C730.6 476.56 730.28 478.747 730.28 482H744.2V489.36H730.28V512.64H744.36V520H713.32ZM756.44 486.24C759.16 482.987 763.347 481.36 769 481.36C774.653 481.36 778.84 482.987 781.56 486.24C784.28 489.44 785.64 494.4 785.64 501.12C785.64 507.84 784.28 512.853 781.56 516.16C778.84 519.413 774.653 521.04 769 521.04C763.347 521.04 759.16 519.413 756.44 516.16C753.72 512.853 752.36 507.84 752.36 501.12C752.36 494.4 753.72 489.44 756.44 486.24ZM762.84 491.92C761.773 493.787 761.24 496.853 761.24 501.12C761.24 505.387 761.8 508.48 762.92 510.4C764.04 512.32 766.067 513.28 769 513.28C771.933 513.28 773.96 512.32 775.08 510.4C776.2 508.48 776.76 505.387 776.76 501.12C776.76 496.853 776.2 493.787 775.08 491.92C774.013 490.053 771.987 489.12 769 489.12C766.013 489.12 763.96 490.053 762.84 491.92ZM793.88 520V512.64H801.64V489.36H793.88V482H809.88L810.04 485.84C814.093 483.547 818.733 482.107 823.96 481.52H826.12V489.52H823.96C818.093 490.053 813.453 491.28 810.04 493.2V512.8H821.96V520H793.88ZM886.28 513.12C887.773 513.12 889.427 512.773 891.24 512.08C893.053 511.387 894.493 510.613 895.56 509.76V504.16C892.36 503.893 889.747 503.76 887.72 503.76C883.293 503.76 881.08 505.413 881.08 508.72C881.08 511.653 882.813 513.12 886.28 513.12ZM885 520.88C876.467 520.88 872.2 516.827 872.2 508.72C872.2 504.4 873.56 501.387 876.28 499.68C879.053 497.92 882.867 497.04 887.72 497.04C890.013 497.04 892.627 497.173 895.56 497.44C895.56 494.24 895.107 492.053 894.2 490.88C893.293 489.707 891.72 489.12 889.48 489.12C887.24 489.12 884.627 489.387 881.64 489.92C878.653 490.453 876.36 490.987 874.76 491.52L873.24 483.92C878.84 482.213 884.307 481.36 889.64 481.36C894.973 481.36 898.653 482.533 900.68 484.88C902.76 487.227 903.8 491.2 903.8 496.8V513.04L904.68 520.08L896.44 520.88L895.64 517.2C891.16 519.653 887.613 520.88 885 520.88ZM954.2 520V512.64H966.12V474.08L955.8 474.16L955.72 466.88L974.36 466.8V512.64H985.64V520H954.2ZM993.88 520V512.64H1005.8V489.36H994.52V482H1014.04V512.64H1025.32V520H993.88ZM1009.48 476.48C1007.88 476.48 1006.6 476 1005.64 475.04C1004.73 474.027 1004.28 472.72 1004.28 471.12C1004.28 469.52 1004.76 468.24 1005.72 467.28C1006.68 466.32 1007.96 465.84 1009.56 465.84C1011.21 465.84 1012.47 466.32 1013.32 467.28C1014.23 468.187 1014.68 469.467 1014.68 471.12C1014.68 472.773 1014.23 474.08 1013.32 475.04C1012.41 476 1011.13 476.48 1009.48 476.48ZM1031.48 482H1040.2L1047.72 512.64H1050.68L1057.8 482H1066.6L1056.92 520H1041.56L1031.48 482ZM1072.92 501.04C1072.92 494.587 1074.36 489.707 1077.24 486.4C1080.12 483.04 1084.12 481.36 1089.24 481.36C1094.36 481.36 1098.31 482.88 1101.08 485.92C1103.91 488.907 1105.37 493.307 1105.48 499.12L1105.16 505.04H1081.8C1082.28 510.8 1085.16 513.68 1090.44 513.68C1094.12 513.68 1098.01 513.013 1102.12 511.68L1103.8 518.64C1102.09 519.227 1099.88 519.733 1097.16 520.16C1094.44 520.64 1092.2 520.88 1090.44 520.88C1078.76 520.88 1072.92 514.267 1072.92 501.04ZM1089.56 488.8C1087.05 488.8 1085.16 489.547 1083.88 491.04C1082.65 492.48 1081.96 494.907 1081.8 498.32H1096.6C1096.6 491.973 1094.25 488.8 1089.56 488.8ZM685.48 546.64V593.36L686.28 600L678.2 600.8L677.48 597.12C674.013 599.627 670.627 600.88 667.32 600.88C662.36 600.88 658.627 599.44 656.12 596.56C653.613 593.627 652.36 588.693 652.36 581.76C652.36 574.827 653.88 569.707 656.92 566.4C659.96 563.04 663.907 561.36 668.76 561.36C671.587 561.36 674.44 561.973 677.32 563.2V546.64H685.48ZM667.88 593.2C670.707 593.2 673.853 591.76 677.32 588.88V571.04C674.547 569.707 671.827 569.04 669.16 569.04C663.88 569.04 661.24 573.28 661.24 581.76C661.24 589.387 663.453 593.2 667.88 593.2ZM692.92 581.04C692.92 574.587 694.36 569.707 697.24 566.4C700.12 563.04 704.12 561.36 709.24 561.36C714.36 561.36 718.307 562.88 721.08 565.92C723.907 568.907 725.373 573.307 725.48 579.12L725.16 585.04H701.8C702.28 590.8 705.16 593.68 710.44 593.68C714.12 593.68 718.013 593.013 722.12 591.68L723.8 598.64C722.093 599.227 719.88 599.733 717.16 600.16C714.44 600.64 712.2 600.88 710.44 600.88C698.76 600.88 692.92 594.267 692.92 581.04ZM709.56 568.8C707.053 568.8 705.16 569.547 703.88 571.04C702.653 572.48 701.96 574.907 701.8 578.32H716.6C716.6 571.973 714.253 568.8 709.56 568.8ZM738.68 562L738.92 564.16C740.947 562.293 742.92 561.36 744.84 561.36C747.56 561.36 749.613 562.373 751 564.4C753.773 562.373 756.227 561.36 758.36 561.36C761.56 561.36 763.827 562.293 765.16 564.16C766.547 566.027 767.24 569.493 767.24 574.56V600H759.08V578.08C759.08 573.173 758.653 570.347 757.8 569.6C757.373 569.173 756.76 568.96 755.96 568.96C755.16 568.96 754.147 569.493 752.92 570.56C753.187 571.787 753.32 574.293 753.32 578.08V586.96H745.24V578.08C745.24 573.227 744.947 570.4 744.36 569.6C744.04 569.173 743.48 568.96 742.68 568.96C741.933 568.96 740.787 569.547 739.24 570.72V600H730.84V562H738.68ZM776.44 566.24C779.16 562.987 783.347 561.36 789 561.36C794.653 561.36 798.84 562.987 801.56 566.24C804.28 569.44 805.64 574.4 805.64 581.12C805.64 587.84 804.28 592.853 801.56 596.16C798.84 599.413 794.653 601.04 789 601.04C783.347 601.04 779.16 599.413 776.44 596.16C773.72 592.853 772.36 587.84 772.36 581.12C772.36 574.4 773.72 569.44 776.44 566.24ZM782.84 571.92C781.773 573.787 781.24 576.853 781.24 581.12C781.24 585.387 781.8 588.48 782.92 590.4C784.04 592.32 786.067 593.28 789 593.28C791.933 593.28 793.96 592.32 795.08 590.4C796.2 588.48 796.76 585.387 796.76 581.12C796.76 576.853 796.2 573.787 795.08 571.92C794.013 570.053 791.987 569.12 789 569.12C786.013 569.12 783.96 570.053 782.84 571.92ZM821.48 562L821.64 564.32C825.96 562.347 829.347 561.36 831.8 561.36C836.12 561.36 839.293 562.64 841.32 565.2C843.4 567.707 844.44 571.653 844.44 577.04V600H836.2V577.28C836.2 574.72 835.747 572.72 834.84 571.28C833.933 569.84 832.52 569.12 830.6 569.12C828.68 569.12 825.72 570.053 821.72 571.92V600H813.48V562H821.48ZM854.04 598.24L855.8 590.96C860.867 592.56 864.893 593.36 867.88 593.36C870.867 593.36 872.893 593.067 873.96 592.48C875.027 591.947 875.56 590.987 875.56 589.6C875.56 588.213 875.08 587.227 874.12 586.64C873.16 586.053 871.347 585.44 868.68 584.8C863.4 583.52 859.72 582.107 857.64 580.56C855.56 578.96 854.52 576.373 854.52 572.8C854.52 565.173 859.427 561.36 869.24 561.36C873.453 561.36 878.333 562.053 883.88 563.44L882.36 571.04C877.08 569.547 873 568.8 870.12 568.8C867.24 568.8 865.293 569.067 864.28 569.6C863.32 570.08 862.84 570.933 862.84 572.16C862.84 573.387 863.32 574.293 864.28 574.88C865.293 575.413 867.853 576.24 871.96 577.36C876.067 578.48 879.08 579.787 881 581.28C882.92 582.72 883.88 585.2 883.88 588.72C883.88 596.773 878.92 600.8 869 600.8C864.36 600.8 859.373 599.947 854.04 598.24ZM893.72 569.36V562H900.2V552.88L908.44 552.08V562H923.4V569.36H908.44V585.36C908.44 588.293 908.733 590.373 909.32 591.6C909.907 592.773 911.107 593.36 912.92 593.36C916.067 593.36 919.747 592.853 923.96 591.84L925.32 598.96C920.68 600.187 916.547 600.8 912.92 600.8C907.8 600.8 904.387 599.653 902.68 597.36C901.027 595.067 900.2 591.067 900.2 585.36V569.36H893.72ZM933.88 600V592.64H941.64V569.36H933.88V562H949.88L950.04 565.84C954.093 563.547 958.733 562.107 963.96 561.52H966.12V569.52H963.96C958.093 570.053 953.453 571.28 950.04 573.2V592.8H961.96V600H933.88ZM986.28 593.12C987.773 593.12 989.427 592.773 991.24 592.08C993.053 591.387 994.493 590.613 995.56 589.76V584.16C992.36 583.893 989.747 583.76 987.72 583.76C983.293 583.76 981.08 585.413 981.08 588.72C981.08 591.653 982.813 593.12 986.28 593.12ZM985 600.88C976.467 600.88 972.2 596.827 972.2 588.72C972.2 584.4 973.56 581.387 976.28 579.68C979.053 577.92 982.867 577.04 987.72 577.04C990.013 577.04 992.627 577.173 995.56 577.44C995.56 574.24 995.107 572.053 994.2 570.88C993.293 569.707 991.72 569.12 989.48 569.12C987.24 569.12 984.627 569.387 981.64 569.92C978.653 570.453 976.36 570.987 974.76 571.52L973.24 563.92C978.84 562.213 984.307 561.36 989.64 561.36C994.973 561.36 998.653 562.533 1000.68 564.88C1002.76 567.227 1003.8 571.2 1003.8 576.8V593.04L1004.68 600.08L996.44 600.88L995.64 597.2C991.16 599.653 987.613 600.88 985 600.88ZM1013.72 569.36V562H1020.2V552.88L1028.44 552.08V562H1043.4V569.36H1028.44V585.36C1028.44 588.293 1028.73 590.373 1029.32 591.6C1029.91 592.773 1031.11 593.36 1032.92 593.36C1036.07 593.36 1039.75 592.853 1043.96 591.84L1045.32 598.96C1040.68 600.187 1036.55 600.8 1032.92 600.8C1027.8 600.8 1024.39 599.653 1022.68 597.36C1021.03 595.067 1020.2 591.067 1020.2 585.36V569.36H1013.72ZM1053.88 600V592.64H1065.8V569.36H1054.52V562H1074.04V592.64H1085.32V600H1053.88ZM1069.48 556.48C1067.88 556.48 1066.6 556 1065.64 555.04C1064.73 554.027 1064.28 552.72 1064.28 551.12C1064.28 549.52 1064.76 548.24 1065.72 547.28C1066.68 546.32 1067.96 545.84 1069.56 545.84C1071.21 545.84 1072.47 546.32 1073.32 547.28C1074.23 548.187 1074.68 549.467 1074.68 551.12C1074.68 552.773 1074.23 554.08 1073.32 555.04C1072.41 556 1071.13 556.48 1069.48 556.48ZM1096.44 566.24C1099.16 562.987 1103.35 561.36 1109 561.36C1114.65 561.36 1118.84 562.987 1121.56 566.24C1124.28 569.44 1125.64 574.4 1125.64 581.12C1125.64 587.84 1124.28 592.853 1121.56 596.16C1118.84 599.413 1114.65 601.04 1109 601.04C1103.35 601.04 1099.16 599.413 1096.44 596.16C1093.72 592.853 1092.36 587.84 1092.36 581.12C1092.36 574.4 1093.72 569.44 1096.44 566.24ZM1102.84 571.92C1101.77 573.787 1101.24 576.853 1101.24 581.12C1101.24 585.387 1101.8 588.48 1102.92 590.4C1104.04 592.32 1106.07 593.28 1109 593.28C1111.93 593.28 1113.96 592.32 1115.08 590.4C1116.2 588.48 1116.76 585.387 1116.76 581.12C1116.76 576.853 1116.2 573.787 1115.08 571.92C1114.01 570.053 1111.99 569.12 1109 569.12C1106.01 569.12 1103.96 570.053 1102.84 571.92ZM1141.48 562L1141.64 564.32C1145.96 562.347 1149.35 561.36 1151.8 561.36C1156.12 561.36 1159.29 562.64 1161.32 565.2C1163.4 567.707 1164.44 571.653 1164.44 577.04V600H1156.2V577.28C1156.2 574.72 1155.75 572.72 1154.84 571.28C1153.93 569.84 1152.52 569.12 1150.6 569.12C1148.68 569.12 1145.72 570.053 1141.72 571.92V600H1133.48V562H1141.48Z" fill="#625959" fill-opacity="0.37"/>
<line x1="279.5" y1="1085" x2="279.5" y2="580" stroke="#306A46" stroke-width="15"/>
<path d="M237.5 1085L237.5 846M195.5 1085L195.5 890" stroke="#306A46" stroke-width="15"/>
<path d="M194 280L194 41M153 324L153 84.9997" stroke="#306A46" stroke-width="15"/>
<path d="M245 853.5L-3.84658e-06 853.5M203 897.5L47.5 897.5" stroke="#306A46" stroke-width="15"/>
<path d="M201.5 48L-3.8466e-06 48M160.5 92L0 92" stroke="#306A46" stroke-width="15"/>
<line x1="321.5" y1="1085" x2="321.5" y2="763" stroke="#306A46" stroke-width="15"/>
<path d="M0 725.5H245" stroke="#306A46" stroke-width="15"/>
<path d="M1730.11 909L1470 909M1778 950L1517.89 950" stroke="#306A46" stroke-width="15"/>
<path d="M197.113 763L-3.58434e-06 763M245 804H0" stroke="#306A46" stroke-width="15"/>
<path d="M1811.11 48L1551 48M1811.11 89.0001H1598.89" stroke="#306A46" stroke-width="15"/>
<path d="M1811.11 422L1551 422M1574 140.5L1605.5 90.5" stroke="#306A46" stroke-width="15"/>
<path d="M1801.48 422L1551 422M1810.5 476L1597.95 476" stroke="#306A46" stroke-width="15"/>
<path d="M1477.5 901L1477.5 1085M1521.5 943L1521.5 1085" stroke="#306A46" stroke-width="15"/>
<line x1="1557.45" y1="186.646" x2="1478.45" y2="44.6462" stroke="#306A46" stroke-width="15"/>
<line x1="1410.54" y1="-3.66721" x2="1535.54" y2="219.333" stroke="#306A46" stroke-width="15"/>
<line x1="1374.59" y1="-3.58958" x2="1513.59" y2="251.41" stroke="#306A46" stroke-width="15"/>
<line x1="1686" y1="182.5" x2="1551" y2="182.5" stroke="#306A46" stroke-width="15"/>
<path d="M367.887 1051L628 1051M320 1013L580.113 1013" stroke="#306A46" stroke-width="15"/>
<line x1="1529" y1="216.5" x2="1703" y2="216.5" stroke="#306A46" stroke-width="15"/>
<line x1="1506" y1="247.5" x2="1639" y2="247.5" stroke="#306A46" stroke-width="15"/>
<line x1="449.527" y1="118.789" x2="377.527" y2="-4.21115" stroke="#306A46" stroke-width="15"/>
<line x1="304.517" y1="-64.7113" x2="427.517" y2="151.289" stroke="#306A46" stroke-width="15"/>
<line x1="261.567" y1="-77.6231" x2="405.567" y2="183.377" stroke="#306A46" stroke-width="15"/>
<line x1="543" y1="114.5" x2="443" y2="114.5" stroke="#306A46" stroke-width="15"/>
<line x1="421" y1="148.5" x2="513" y2="148.5" stroke="#306A46" stroke-width="15"/>
<line x1="398" y1="179.5" x2="590" y2="179.5" stroke="#306A46" stroke-width="15"/>
<line x1="511" y1="618.5" x2="324" y2="618.5" stroke="#306A46" stroke-width="15"/>
<line x1="421" y1="652.5" x2="511" y2="652.5" stroke="#306A46" stroke-width="15"/>
<line x1="398" y1="683.5" x2="511" y2="683.5" stroke="#306A46" stroke-width="15"/>
<line x1="1629.45" y1="797.646" x2="1550.45" y2="655.646" stroke="#306A46" stroke-width="15"/>
<line x1="1477.52" y1="601.297" x2="1607.52" y2="830.297" stroke="#306A46" stroke-width="15"/>
<line x1="1441.57" y1="601.377" x2="1585.57" y2="862.377" stroke="#306A46" stroke-width="15"/>
<line x1="1723" y1="793.5" x2="1623" y2="793.5" stroke="#306A46" stroke-width="15"/>
<line x1="1601" y1="827.5" x2="1794" y2="827.5" stroke="#306A46" stroke-width="15"/>
<line x1="1578" y1="858.5" x2="1654" y2="858.5" stroke="#306A46" stroke-width="15"/>
<line x1="1587.73" y1="734.717" x2="1455.51" y2="506.987" stroke="#306A46" stroke-width="15"/>
<line x1="1623.68" y1="734.289" x2="1477.16" y2="474.696" stroke="#306A46" stroke-width="15"/>
<line x1="1408" y1="550.5" x2="1447" y2="550.5" stroke="#306A46" stroke-width="15"/>
<line x1="1440.51" y1="547.282" x2="1490.09" y2="634.126" stroke="#306A46" stroke-width="15"/>
<line x1="1462" y1="510.5" x2="1387" y2="510.5" stroke="#306A46" stroke-width="15"/>
<line x1="1484" y1="478.5" x2="1336" y2="478.5" stroke="#306A46" stroke-width="15"/>
<rect x="1679" y="161" width="180" height="189" rx="20" fill="#FFF893" stroke="#E6B541" stroke-width="20" stroke-linecap="round" stroke-dasharray="80 120 180 240"/>
<path d="M-198 958C-198 946.954 -189.046 938 -178 938H133C144.046 938 153 946.954 153 958V1165C153 1176.05 144.046 1185 133 1185H-178C-189.046 1185 -198 1176.05 -198 1165V958Z" fill="#FFF893" stroke="#E6B541" stroke-width="17" stroke-linecap="round" stroke-dasharray="30.4 30.4"/>
<circle cx="321" cy="728" r="16" fill="#E6B441"/>
<path d="M375.546 412.799C375.546 421.636 368.383 428.799 359.546 428.799C350.71 428.799 343.546 421.636 343.546 412.799C343.546 403.963 350.71 396.799 359.546 396.799C368.383 396.799 375.546 403.963 375.546 412.799Z" fill="#E6B441"/>
<path d="M1392 600C1392 588.954 1400.95 580 1412 580H1659C1670.05 580 1679 588.954 1679 600V763C1679 774.046 1670.05 783 1659 783H1412C1400.95 783 1392 774.046 1392 763V600Z" fill="#625959" stroke="#9FC2AC" stroke-width="15" stroke-linecap="round" stroke-dasharray="100 60 80 90"/>
<circle cx="234" cy="726" r="18" fill="#306A46"/>
<circle cx="420" cy="653" r="18" fill="#306A46"/>
<circle cx="153" cy="324" r="18" fill="#306A46"/>
<circle cx="28" cy="687" r="16" fill="#E6B441"/>
<path d="M268 270.5C268 280.441 259.941 288.5 250 288.5C240.059 288.5 232 280.441 232 270.5C232 260.559 240.059 252.5 250 252.5C259.941 252.5 268 260.559 268 270.5Z" fill="#306A46"/>
<circle cx="1778" cy="950" r="16" fill="#E6B441"/>
<circle cx="1437" cy="1059" r="16" fill="#E6B441"/>
<circle cx="1551" cy="424" r="16" fill="#E6B441"/>
<circle cx="1477" cy="41" r="16" fill="#E6B441"/>
<circle cx="379" cy="1051" r="16" fill="#E6B441"/>
<circle cx="1723" cy="909" r="18" fill="#306A46"/>
<circle cx="1386" cy="510" r="18" fill="#306A46"/>
<path d="M1625.1 90.3124C1624.45 100.232 1615.88 107.748 1605.96 107.099C1596.04 106.449 1588.53 97.8815 1589.18 87.9616C1589.82 78.0417 1598.39 70.5262 1608.31 71.1754C1618.23 71.8246 1625.75 80.3925 1625.1 90.3124Z" fill="#306A46"/>
<path d="M1649.1 347.312C1648.45 357.232 1639.88 364.748 1629.96 364.099C1620.04 363.449 1612.53 354.881 1613.18 344.962C1613.82 335.042 1622.39 327.526 1632.31 328.175C1642.23 328.825 1649.75 337.392 1649.1 347.312Z" fill="#306A46"/>
<line x1="357" y1="964.5" x2="630" y2="964.5" stroke="#306A46" stroke-width="15"/>
<line x1="625.303" y1="962.697" x2="696.303" y2="1033.7" stroke="#306A46" stroke-width="15"/>
<path d="M693.5 1028L693.5 1085" stroke="#306A46" stroke-width="15"/>
<line x1="526.034" y1="459.5" x2="314.235" y2="460.462" stroke="#306A46" stroke-width="15"/>
<line y1="-7.5" x2="101.271" y2="-7.5" transform="matrix(-0.703189 -0.711003 0.698906 -0.715213 324.213 457)" stroke="#306A46" stroke-width="15"/>
<line y1="-7.5" x2="70.1871" y2="-7.5" transform="matrix(-0.00295224 -0.999996 0.999995 -0.0030547 258.036 397.187)" stroke="#306A46" stroke-width="15"/>
<path d="M250.5 -3.73133e-08L251.354 280.354" stroke="#306A46" stroke-width="15"/>
<line x1="191" y1="371.5" x2="44" y2="371.5" stroke="#306A46" stroke-width="15"/>
<line x1="194.5" y1="379" x2="194.5" y2="280" stroke="#306A46" stroke-width="15"/>
<circle cx="52" cy="372" r="16" fill="#E6B441"/>
<path d="M217 86C217 74.9543 225.954 66 237 66H266C277.046 66 286 74.9543 286 86V132C286 143.046 277.046 152 266 152H237C225.954 152 217 143.046 217 132V86Z" fill="#625959" stroke="#9FC2AC" stroke-width="10" stroke-linecap="round" stroke-dasharray="20 20"/>
<path d="M400.5 943C400.5 931.954 409.454 923 420.5 923H466.5C477.546 923 486.5 931.954 486.5 943V974C486.5 985.046 477.546 994 466.5 994H420.5C409.454 994 400.5 985.046 400.5 974V943Z" fill="#625959" stroke="#9FC2AC" stroke-width="10" stroke-linecap="round" stroke-dasharray="20 20"/>
<path d="M1741 1011C1741 999.954 1749.95 991 1761 991H1817C1828.05 991 1837 999.954 1837 1011V1042C1837 1053.05 1828.05 1062 1817 1062H1761C1749.95 1062 1741 1053.05 1741 1042V1011Z" fill="#625959" stroke="#9FC2AC" stroke-width="10" stroke-linecap="round" stroke-dasharray="20 20"/>
<line x1="1631.5" y1="247" x2="1631.5" y2="350" stroke="#306A46" stroke-width="15"/>
<path opacity="0.5" d="M590.25 161L568.5 62.75H585L603.45 147.05H606.6L624.3 62.75H640.35L619.35 161H590.25ZM651.15 161V147.2H673.5V103.55H652.35V89.75H688.95V147.2H710.1V161H651.15ZM680.4 79.4C677.4 79.4 675 78.5 673.2 76.7C671.5 74.8 670.65 72.35 670.65 69.35C670.65 66.35 671.55 63.95 673.35 62.15C675.15 60.35 677.55 59.45 680.55 59.45C683.65 59.45 686 60.35 687.6 62.15C689.3 63.85 690.15 66.25 690.15 69.35C690.15 72.45 689.3 74.9 687.6 76.7C685.9 78.5 683.5 79.4 680.4 79.4ZM726.45 157.7L729.75 144.05C739.25 147.05 746.8 148.55 752.4 148.55C758 148.55 761.8 148 763.8 146.9C765.8 145.9 766.8 144.1 766.8 141.5C766.8 138.9 765.9 137.05 764.1 135.95C762.3 134.85 758.9 133.7 753.9 132.5C744 130.1 737.1 127.45 733.2 124.55C729.3 121.55 727.35 116.7 727.35 110C727.35 95.7 736.55 88.55 754.95 88.55C762.85 88.55 772 89.85 782.4 92.45L779.55 106.7C769.65 103.9 762 102.5 756.6 102.5C751.2 102.5 747.55 103 745.65 104C743.85 104.9 742.95 106.5 742.95 108.8C742.95 111.1 743.85 112.8 745.65 113.9C747.55 114.9 752.35 116.45 760.05 118.55C767.75 120.65 773.4 123.1 777 125.9C780.6 128.6 782.4 133.25 782.4 139.85C782.4 154.95 773.1 162.5 754.5 162.5C745.8 162.5 736.45 160.9 726.45 157.7ZM801.15 161V147.2H823.5V103.55H802.35V89.75H838.95V147.2H860.1V161H801.15ZM830.4 79.4C827.4 79.4 825 78.5 823.2 76.7C821.5 74.8 820.65 72.35 820.65 69.35C820.65 66.35 821.55 63.95 823.35 62.15C825.15 60.35 827.55 59.45 830.55 59.45C833.65 59.45 836 60.35 837.6 62.15C839.3 63.85 840.15 66.25 840.15 69.35C840.15 72.45 839.3 74.9 837.6 76.7C835.9 78.5 833.5 79.4 830.4 79.4ZM880.95 97.7C886.05 91.6 893.9 88.55 904.5 88.55C915.1 88.55 922.95 91.6 928.05 97.7C933.15 103.7 935.7 113 935.7 125.6C935.7 138.2 933.15 147.6 928.05 153.8C922.95 159.9 915.1 162.95 904.5 162.95C893.9 162.95 886.05 159.9 880.95 153.8C875.85 147.6 873.3 138.2 873.3 125.6C873.3 113 875.85 103.7 880.95 97.7ZM892.95 108.35C890.95 111.85 889.95 117.6 889.95 125.6C889.95 133.6 891 139.4 893.1 143C895.2 146.6 899 148.4 904.5 148.4C910 148.4 913.8 146.6 915.9 143C918 139.4 919.05 133.6 919.05 125.6C919.05 117.6 918 111.85 915.9 108.35C913.9 104.85 910.1 103.1 904.5 103.1C898.9 103.1 895.05 104.85 892.95 108.35ZM965.4 89.75L965.7 94.1C973.8 90.4 980.15 88.55 984.75 88.55C992.85 88.55 998.8 90.95 1002.6 95.75C1006.5 100.45 1008.45 107.85 1008.45 117.95V161H993V118.4C993 113.6 992.15 109.85 990.45 107.15C988.75 104.45 986.1 103.1 982.5 103.1C978.9 103.1 973.35 104.85 965.85 108.35V161H950.4V89.75H965.4ZM1054.2 129.5H1039.35V161H1023.75V62.75H1054.65C1066.05 62.75 1074.35 65.4 1079.55 70.7C1084.85 75.9 1087.5 84.1 1087.5 95.3C1087.5 118.1 1076.4 129.5 1054.2 129.5ZM1052.25 76.55H1039.35V115.25H1052.25C1058.95 115.25 1063.85 113.7 1066.95 110.6C1070.05 107.4 1071.6 102.3 1071.6 95.3C1071.6 88.3 1070 83.45 1066.8 80.75C1063.7 77.95 1058.85 76.55 1052.25 76.55ZM1098 110.9C1098 77.8 1110.1 61.25 1134.3 61.25C1141.9 61.25 1149.7 62.45 1157.7 64.85L1161.6 66.05V87.8H1146V76.7C1142.4 75.9 1139 75.4 1135.8 75.2H1134.3C1127.5 75.2 1122.4 77.85 1119 83.15C1115.6 88.45 1113.9 97.7 1113.9 110.9C1114.1 126.5 1115.9 136.8 1119.3 141.8C1121.1 144.4 1123.15 146.2 1125.45 147.2C1127.75 148.1 1130.7 148.55 1134.3 148.55C1142.5 148.75 1150.7 147.55 1158.9 144.95L1161.6 158C1158.3 159.1 1153.8 160.1 1148.1 161C1142.5 162 1137.85 162.5 1134.15 162.5C1121.95 162.7 1112.85 158.8 1106.85 150.8C1100.95 142.7 1098 129.4 1098 110.9ZM1173.75 161V62.75H1203.9C1225.7 62.75 1236.6 71.25 1236.6 88.25C1236.6 93.75 1235.2 98.5 1232.4 102.5C1229.6 106.5 1225.8 109 1221 110C1226.6 110.8 1230.95 113.25 1234.05 117.35C1237.25 121.35 1238.9 126.6 1239 133.1C1239 151.7 1226.85 161 1202.55 161H1173.75ZM1204.8 147.5C1211.4 147.5 1216.1 146.05 1218.9 143.15C1221.7 140.25 1223.1 136.4 1223.1 131.6C1223.1 126.7 1221.55 123.15 1218.45 120.95C1215.45 118.75 1210.65 117.65 1204.05 117.65H1189.35V147.5H1204.8ZM1221.3 89.45C1221.3 80.65 1215.85 76.25 1204.95 76.25H1189.35V104.15H1203.75C1215.45 104.15 1221.3 99.25 1221.3 89.45Z" fill="white"/>
</g>
<defs>
<clipPath id="clip0_2001_2">
<rect width="1810" height="1085" fill="white"/>
</clipPath>
</defs>
</svg>
